<svg data-v-423bf9ae="" xmlns="http://www.w3.org/2000/svg" viewBox="0 0 476.6477048645426 163" class="iconAbove"><!----><!----><!----><g data-v-423bf9ae="" id="cd6876a1-028e-460e-9a4f-d94d4ae17c50" fill="white" transform="matrix(5.681817956043021,0,0,5.681817956043021,1.0227276775416954,102.37500084778576)"><path d="M-0.18 1.22C0.64 1.26 0.77 1.30 1.01 2.13C1.33 3.23 1.74 4.63 2.11 6.03L3.30 10.50L4.38 10.50L6.58 2.74L6.61 2.74C7.46 5.42 8.23 7.99 8.95 10.50L10.01 10.50L11.41 5.50C11.86 3.92 12.18 2.69 12.38 2.16C12.66 1.34 12.81 1.27 13.68 1.22L13.68 0.81L10.47 0.81L10.47 1.22L11.34 1.30C11.68 1.34 11.70 1.54 11.65 1.83C11.56 2.35 11.26 3.50 10.91 4.82L9.87 8.82L9.83 8.82C9.03 6.23 8.23 3.64 7.46 1.06L6.41 1.06L4.27 8.82L4.24 8.82C3.51 6.41 2.90 4.06 2.34 1.86C2.23 1.40 2.30 1.32 2.63 1.29L3.33 1.22L3.33 0.81L-0.18 0.81ZM13.85 7.13C13.85 9.34 14.80 10.67 17.08 10.67C18.63 10.67 19.43 9.80 19.81 8.69L19.39 8.47C19.00 9.28 18.47 9.95 17.36 9.95C15.62 9.95 15.27 8.27 15.30 6.82L19.33 6.82C19.63 6.82 19.89 6.75 19.89 6.29C19.89 5.46 19.63 3.47 17.07 3.47C14.88 3.47 13.85 5.03 13.85 7.13ZM15.32 6.29C15.32 5.71 15.53 3.96 16.98 3.96C18.28 3.96 18.44 5.29 18.44 5.84C18.44 6.10 18.35 6.29 17.96 6.29ZM21.04 8.68C21.04 9.73 21.74 10.67 23.06 10.67C23.87 10.67 24.70 10.12 25.14 9.83C25.34 10.35 25.56 10.67 26.05 10.67C26.57 10.67 27.17 10.51 27.71 10.25L27.62 9.91C27.43 9.95 27.12 9.98 26.91 9.93C26.66 9.87 26.42 9.60 26.42 8.72L26.42 5.33C26.42 4.52 26.24 3.47 24.12 3.47C22.54 3.47 21.29 4.30 21.29 5.07C21.29 5.52 21.81 5.73 22.08 5.73C22.37 5.73 22.46 5.57 22.53 5.33C22.83 4.30 23.41 3.96 23.97 3.96C24.51 3.96 25.16 4.24 25.16 5.36L25.16 5.95C24.81 6.31 23.45 6.66 22.34 7.01C21.34 7.32 21.04 8.02 21.04 8.68ZM22.46 8.48C22.46 7.83 22.76 7.49 23.55 7.20C24.11 6.99 24.85 6.72 25.16 6.52L25.16 8.50C25.16 9.63 24.29 9.93 23.74 9.93C22.88 9.93 22.46 9.31 22.46 8.48ZM28.11 4.20L29.12 4.20L29.12 9.07C29.12 10.50 30.18 10.67 30.67 10.67C31.39 10.67 32.06 10.30 32.47 10.05L32.35 9.76C32.02 9.90 31.71 9.94 31.36 9.94C30.88 9.94 30.44 9.60 30.44 8.54L30.44 4.20L32.24 4.20L32.24 3.64L30.44 3.64L30.44 1.88L30.03 1.88L29.18 3.64L28.11 3.64ZM32.79 10.50L36.19 10.50L36.19 10.09C35.22 10.02 35.14 9.97 35.14 9.28L35.14 6.01C35.14 5.66 35.15 5.46 35.27 5.25C35.56 4.69 36.20 4.23 36.95 4.23C37.90 4.23 38.42 4.76 38.42 5.98L38.42 9.28C38.42 9.97 38.35 10.02 37.37 10.09L37.37 10.50L40.78 10.50L40.78 10.09C39.82 10.02 39.73 9.97 39.73 9.28L39.73 5.70C39.73 4.28 38.96 3.47 37.66 3.47C36.64 3.47 36.01 3.95 35.13 4.54L35.13 0.20L35.03 0.11L32.84 0.46L32.84 0.81L33.38 0.88C33.74 0.94 33.82 1.01 33.82 1.51L33.82 9.28C33.82 9.97 33.77 10.02 32.79 10.09ZM41.68 7.13C41.68 9.34 42.63 10.67 44.91 10.67C46.47 10.67 47.26 9.80 47.64 8.69L47.22 8.47C46.83 9.28 46.30 9.95 45.19 9.95C43.46 9.95 43.11 8.27 43.13 6.82L47.17 6.82C47.46 6.82 47.73 6.75 47.73 6.29C47.73 5.46 47.46 3.47 44.90 3.47C42.71 3.47 41.68 5.03 41.68 7.13ZM43.15 6.29C43.15 5.71 43.36 3.96 44.81 3.96C46.12 3.96 46.27 5.29 46.27 5.84C46.27 6.10 46.19 6.29 45.79 6.29ZM48.64 10.50L52.33 10.50L52.33 10.09C51.09 10.02 51.00 10.00 51.00 9.28L51.00 6.01C51.00 4.93 51.48 4.56 51.80 4.56C52.02 4.56 52.26 4.65 52.67 4.87C52.77 4.93 52.88 4.94 52.95 4.94C53.28 4.94 53.59 4.59 53.59 4.16C53.59 3.85 53.40 3.47 52.85 3.47C52.35 3.47 51.93 3.78 51.00 4.59L50.83 3.47L48.71 3.82L48.71 4.17L49.24 4.24C49.60 4.30 49.69 4.37 49.69 4.87L49.69 9.28C49.69 10.00 49.62 10.02 48.64 10.09ZM53.45 1.22C54.28 1.26 54.40 1.30 54.64 2.13C54.96 3.23 55.37 4.63 55.75 6.03L56.94 10.50L58.02 10.50L60.21 2.74L60.24 2.74C61.10 5.42 61.87 7.99 62.58 10.50L63.64 10.50L65.04 5.50C65.49 3.92 65.81 2.69 66.01 2.16C66.29 1.34 66.44 1.27 67.31 1.22L67.31 0.81L64.11 0.81L64.11 1.22L64.97 1.30C65.31 1.34 65.34 1.54 65.28 1.83C65.20 2.35 64.89 3.50 64.54 4.82L63.50 8.82L63.46 8.82C62.66 6.23 61.87 3.64 61.10 1.06L60.05 1.06L57.90 8.82L57.88 8.82C57.15 6.41 56.53 4.06 55.97 1.86C55.86 1.40 55.93 1.32 56.27 1.29L56.97 1.22L56.97 0.81L53.45 0.81ZM68.08 1.34C68.08 1.85 68.43 2.20 68.94 2.20C69.44 2.20 69.79 1.85 69.79 1.34C69.79 0.84 69.44 0.49 68.94 0.49C68.43 0.49 68.08 0.84 68.08 1.34ZM67.24 10.50L70.66 10.50L70.66 10.09C69.66 10.02 69.61 10.00 69.61 9.28L69.61 3.56L69.51 3.47L67.31 3.82L67.31 4.17L67.84 4.24C68.21 4.30 68.29 4.37 68.29 4.87L68.29 9.28C68.29 10.00 68.25 10.02 67.24 10.09ZM71.53 8.16L71.67 10.00C72.17 10.44 73.02 10.67 73.85 10.67C75.52 10.67 76.47 9.79 76.47 8.60C76.47 7.36 75.71 6.80 74.27 6.36C73.70 6.17 72.77 5.88 72.77 5.10C72.77 4.37 73.33 3.96 74.03 3.96C75.03 3.96 75.50 4.73 75.60 5.59L76.01 5.59L76.01 3.95C75.54 3.61 74.83 3.47 74.20 3.47C72.69 3.47 71.65 4.19 71.65 5.52C71.65 6.68 72.60 7.20 73.77 7.55C74.40 7.74 75.28 8.06 75.28 9.02C75.28 9.73 74.72 10.18 73.98 10.18C72.84 10.18 72.21 9.35 71.93 8.16ZM77.66 7.13C77.66 9.34 78.61 10.67 80.89 10.67C82.45 10.67 83.24 9.80 83.62 8.69L83.20 8.47C82.81 9.28 82.28 9.95 81.17 9.95C79.44 9.95 79.09 8.27 79.11 6.82L83.15 6.82C83.44 6.82 83.71 6.75 83.71 6.29C83.71 5.46 83.44 3.47 80.88 3.47C78.69 3.47 77.66 5.03 77.66 7.13ZM79.13 6.29C79.13 5.71 79.34 3.96 80.79 3.96C82.10 3.96 82.25 5.29 82.25 5.84C82.25 6.10 82.17 6.29 81.77 6.29Z"></path></g><!----><g data-v-423bf9ae="" id="23725cb6-09da-4053-966c-c4143ec45f66" transform="matrix(1.9885107324808393,0,0,1.9885107324808393,189.2712415965183,-4.342770322853511)" stroke="none" fill="white"><path d="M3.459 31.03h28.753c6.52-6.523-.793-10.971-3.457-10.971l-1.584 3.063s.299-10.178-9.784-10.178c-5.634 0-8.89 6.422-8.89 6.422l4.051 3.361C8.297 18.477.984 19.664.984 26.481c.001 0 .203 4.549 2.475 4.549zM45.949 36.366c-.494.887-1.682 1.184-2.57.689L38.24 34.09c-.891-.592-1.186-1.68-.695-2.568a1.762 1.762 0 0 1 2.574-.693l5.137 2.965a1.76 1.76 0 0 1 .693 2.572z"></path><path d="M45.949 36.366c-.494.887-1.682 1.184-2.57.689L38.24 34.09c-.891-.592-1.186-1.68-.695-2.568a1.762 1.762 0 0 1 2.574-.693l5.137 2.965a1.76 1.76 0 0 1 .693 2.572zM37.746 44.663c-.986.496-2.074.199-2.57-.689l-3.064-5.238c-.492-.889-.197-1.977.695-2.568.887-.492 2.072-.199 2.57.691l3.061 5.236c.494.888.197 1.978-.692 2.568z"></path><path d="M37.746 44.663c-.986.496-2.074.199-2.57-.689l-3.064-5.238c-.492-.889-.197-1.977.695-2.568.887-.492 2.072-.199 2.57.691l3.061 5.236c.494.888.197 1.978-.692 2.568zM26.381 47.63c-1.084 0-1.875-.793-1.875-1.877v-5.93c0-1.088.791-1.877 1.875-1.877 1.09 0 1.879.789 1.879 1.877v5.93c0 1.084-.789 1.877-1.879 1.877z"></path><path d="M26.381 47.63c-1.084 0-1.875-.793-1.875-1.877v-5.93c0-1.088.791-1.877 1.875-1.877 1.09 0 1.879.789 1.879 1.877v5.93c0 1.084-.789 1.877-1.879 1.877zM26.381 2.37c1.09 0 1.879.889 1.879 1.879v6.027a1.877 1.877 0 1 1-3.754 0V4.249a1.875 1.875 0 0 1 1.875-1.879z"></path><path d="M26.381 2.37c1.09 0 1.879.889 1.879 1.879v6.027a1.877 1.877 0 1 1-3.754 0V4.249a1.875 1.875 0 0 1 1.875-1.879zM37.746 5.435c.889.494 1.186 1.682.691 2.572l-3.061 5.137c-.498.889-1.684 1.186-2.57.691-.893-.494-1.188-1.682-.695-2.572l3.064-5.137c.497-.889 1.585-1.186 2.571-.691z"></path><path d="M37.746 5.435c.889.494 1.186 1.682.691 2.572l-3.061 5.137c-.498.889-1.684 1.186-2.57.691-.893-.494-1.188-1.682-.695-2.572l3.064-5.137c.497-.889 1.585-1.186 2.571-.691zM45.949 13.735c.592.891.293 1.977-.693 2.568l-5.137 2.965c-.891.494-2.076.197-2.574-.691-.49-.889-.195-2.076.695-2.568l5.139-2.967c.889-.594 2.076-.197 2.57.693z"></path><path d="M45.949 13.735c.592.891.293 1.977-.693 2.568l-5.137 2.965c-.891.494-2.076.197-2.574-.691-.49-.889-.195-2.076.695-2.568l5.139-2.967c.889-.594 2.076-.197 2.57.693zM49.016 24.999c0 1.088-.795 1.879-1.879 1.879h-5.932c-1.086 0-1.875-.791-1.875-1.879 0-.986.789-1.877 1.875-1.877h5.932a1.88 1.88 0 0 1 1.879 1.877z"></path><path d="M49.016 24.999c0 1.088-.795 1.879-1.879 1.879h-5.932c-1.086 0-1.875-.791-1.875-1.879 0-.986.789-1.877 1.875-1.877h5.932a1.88 1.88 0 0 1 1.879 1.877zM45.949 36.366c-.494.887-1.682 1.184-2.57.689L38.24 34.09c-.891-.592-1.186-1.68-.695-2.568a1.762 1.762 0 0 1 2.574-.693l5.137 2.965a1.76 1.76 0 0 1 .693 2.572zM37.746 44.663c-.986.496-2.074.199-2.57-.689l-3.064-5.238c-.492-.889-.197-1.977.695-2.568.887-.492 2.072-.199 2.57.691l3.061 5.236c.494.888.197 1.978-.692 2.568zM26.381 47.63c-1.084 0-1.875-.793-1.875-1.877v-5.93c0-1.088.791-1.877 1.875-1.877 1.09 0 1.879.789 1.879 1.877v5.93c0 1.084-.789 1.877-1.879 1.877zM26.381 2.37c1.09 0 1.879.889 1.879 1.879v6.027a1.877 1.877 0 1 1-3.754 0V4.249a1.875 1.875 0 0 1 1.875-1.879zM37.746 5.435c.889.494 1.186 1.682.691 2.572l-3.061 5.137c-.498.889-1.684 1.186-2.57.691-.893-.494-1.188-1.682-.695-2.572l3.064-5.137c.497-.889 1.585-1.186 2.571-.691zM45.949 13.735c.592.891.293 1.977-.693 2.568l-5.137 2.965c-.891.494-2.076.197-2.574-.691-.49-.889-.195-2.076.695-2.568l5.139-2.967c.889-.594 2.076-.197 2.57.693z"></path><path d="M49.016 24.999c0 1.088-.795 1.879-1.879 1.879h-5.932c-1.086 0-1.875-.791-1.875-1.879 0-.986.789-1.877 1.875-1.877h5.932a1.88 1.88 0 0 1 1.879 1.877z"></path></g><!----></svg>